<svg width="181" height="153" viewBox="0 0 181 153" fill="none" xmlns="http://www.w3.org/2000/svg">
<path d="M5.92676 123.327C6.78894 123.327 7.54964 123.465 8.20898 123.739C8.86827 124.014 9.44865 124.386 9.9502 124.856L9.40918 125.604C9.37541 125.66 9.33062 125.708 9.27441 125.747C9.22369 125.781 9.15268 125.798 9.0625 125.798C8.96116 125.798 8.83768 125.744 8.69141 125.638C8.54491 125.526 8.35284 125.403 8.11621 125.269C7.87953 125.134 7.58351 125.014 7.22852 124.907C6.87344 124.795 6.43649 124.739 5.91797 124.739C5.29253 124.739 4.72056 124.848 4.20215 125.066C3.68368 125.279 3.23502 125.59 2.85742 125.999C2.48544 126.408 2.19487 126.907 1.98633 127.495C1.77785 128.083 1.67383 128.747 1.67383 129.486C1.67383 130.237 1.78104 130.906 1.99512 131.494C2.21493 132.082 2.51083 132.581 2.88281 132.99C3.26035 133.393 3.70285 133.701 4.20996 133.914C4.72284 134.127 5.27541 134.233 5.86719 134.233C6.2279 134.233 6.5524 134.214 6.83984 134.175C7.13271 134.13 7.40037 134.063 7.64258 133.974C7.89057 133.884 8.11861 133.771 8.32715 133.637C8.54132 133.497 8.75338 133.332 8.96191 133.142C9.05768 133.058 9.15326 133.016 9.24902 133.016C9.33916 133.016 9.41774 133.052 9.48535 133.125L10.1367 133.822C9.64075 134.394 9.03727 134.839 8.32715 135.158C7.62269 135.477 6.76872 135.637 5.76562 135.637C4.89772 135.637 4.10855 135.488 3.39844 135.191C2.68849 134.889 2.08257 134.469 1.58105 133.932C1.07944 133.388 0.690234 132.738 0.414062 131.981C0.138002 131.225 0 130.394 0 129.486C4.38042e-06 128.579 0.144241 127.747 0.431641 126.991C0.719084 126.235 1.12112 125.584 1.63965 125.041C2.16372 124.498 2.78969 124.078 3.5166 123.781C4.24367 123.479 5.04752 123.327 5.92676 123.327Z" fill="#600B0B"/>
<path d="M94.1104 123.327C94.5894 123.327 95.0349 123.364 95.4463 123.437C95.8575 123.504 96.2376 123.605 96.5869 123.739C96.9363 123.868 97.2609 124.027 97.5596 124.218C97.8583 124.403 98.1372 124.613 98.3965 124.849L97.9316 125.588C97.8585 125.7 97.7626 125.772 97.6445 125.806C97.5318 125.834 97.4046 125.806 97.2637 125.722C97.1285 125.643 96.9734 125.548 96.7988 125.437C96.6241 125.325 96.4098 125.218 96.1562 125.117C95.9083 125.011 95.6123 124.921 95.2686 124.849C94.9304 124.776 94.5274 124.739 94.0596 124.739C93.3776 124.739 92.7604 124.851 92.208 125.075C91.6557 125.294 91.1848 125.61 90.7959 126.024C90.407 126.433 90.1089 126.932 89.9004 127.521C89.6919 128.103 89.5869 128.758 89.5869 129.486C89.5869 130.242 89.6941 130.92 89.9082 131.52C90.128 132.113 90.4387 132.621 90.8389 133.041C91.2446 133.455 91.7349 133.772 92.3096 133.99C92.8843 134.209 93.5295 134.317 94.2451 134.317C94.8087 134.317 95.3082 134.256 95.7422 134.133C96.1817 134.004 96.6103 133.828 97.0273 133.604V130.957H95.1416C95.0346 130.957 94.9475 130.926 94.8799 130.864C94.8179 130.803 94.7862 130.727 94.7861 130.638V129.713H98.5068V134.335C97.8982 134.772 97.2469 135.099 96.5537 135.317C95.8662 135.53 95.1109 135.637 94.2881 135.637C93.3131 135.637 92.4338 135.488 91.6504 135.191C90.867 134.889 90.1957 134.469 89.6377 133.932C89.0854 133.388 88.66 132.738 88.3613 131.981C88.0627 131.225 87.9131 130.394 87.9131 129.486C87.9131 128.568 88.0573 127.73 88.3447 126.974C88.6378 126.218 89.0517 125.571 89.5869 125.033C90.1223 124.49 90.7735 124.069 91.54 123.772C92.3066 123.476 93.1635 123.327 94.1104 123.327Z" fill="#600B0B"/>
<path fill-rule="evenodd" clip-rule="evenodd" d="M33.1602 135.503H31.8916C31.7454 135.503 31.6272 135.466 31.5371 135.394C31.447 135.321 31.3791 135.228 31.334 135.116L30.2012 132.209H24.7646L23.6318 135.116C23.598 135.217 23.5332 135.306 23.4375 135.385C23.3418 135.463 23.2237 135.503 23.083 135.503H21.8145L26.6582 123.462H28.3154L33.1602 135.503ZM27.4873 125.008C27.3689 125.462 27.248 125.84 27.124 126.143L25.2217 131.032H29.7441L27.8418 126.134C27.7855 125.988 27.727 125.82 27.665 125.63C27.603 125.434 27.5437 125.226 27.4873 125.008Z" fill="#600B0B"/>
<path fill-rule="evenodd" clip-rule="evenodd" d="M49.4492 123.462C50.2157 123.462 50.8785 123.54 51.4365 123.697C51.9943 123.849 52.4538 124.07 52.8145 124.361C53.1806 124.653 53.4513 125.006 53.626 125.42C53.8006 125.829 53.8877 126.288 53.8877 126.798C53.8877 127.223 53.8197 127.621 53.6846 127.99C53.5493 128.36 53.352 128.693 53.0928 128.99C52.8391 129.282 52.5263 129.531 52.1543 129.738C51.788 129.945 51.371 130.103 50.9033 130.209C51.1119 130.327 51.2922 130.498 51.4443 130.722L54.9785 135.503H53.5244C53.2258 135.503 53.0061 135.388 52.8652 135.158L49.7197 130.855C49.624 130.721 49.5198 130.626 49.4072 130.57C49.3001 130.509 49.1305 130.478 48.8994 130.478H47.6572V135.503H46.0254V123.462H49.4492ZM47.6572 129.293H49.3818C49.8552 129.293 50.2722 129.237 50.6328 129.125C50.9991 129.007 51.3036 128.845 51.5459 128.638C51.7938 128.425 51.9795 128.173 52.1035 127.882C52.2275 127.591 52.29 127.268 52.29 126.915C52.29 126.198 52.0532 125.658 51.5801 125.294C51.1066 124.93 50.3961 124.747 49.4492 124.747H47.6572V129.293Z" fill="#600B0B"/>
<path d="M75.3643 124.789H69.5391V128.789H74.2568V130.066H69.5391V134.175H75.373L75.3643 135.503H67.8994V123.462H75.3643V124.789Z" fill="#600B0B"/>
<path d="M113.93 135.503H112.289V123.462H113.93V135.503Z" fill="#600B0B"/>
<path d="M128.114 123.462C128.261 123.462 128.379 123.499 128.469 123.571C128.559 123.644 128.627 123.737 128.672 123.849L132.088 132.343C132.161 132.533 132.231 132.741 132.299 132.965C132.372 133.189 132.437 133.424 132.493 133.671C132.55 133.424 132.609 133.189 132.671 132.965C132.733 132.741 132.801 132.533 132.874 132.343L136.281 123.849C136.315 123.753 136.38 123.666 136.476 123.588C136.577 123.504 136.698 123.462 136.839 123.462H138.149L133.212 135.503H131.741L126.804 123.462H128.114Z" fill="#600B0B"/>
<path d="M158.48 124.789H152.655V128.789H157.373V130.066H152.655V134.175H158.489L158.48 135.503H151.016V123.462H158.48V124.789Z" fill="#600B0B"/>
<path fill-rule="evenodd" clip-rule="evenodd" d="M175.471 123.462C176.237 123.462 176.9 123.54 177.458 123.697C178.016 123.849 178.475 124.07 178.836 124.361C179.202 124.653 179.473 125.006 179.647 125.42C179.822 125.829 179.909 126.288 179.909 126.798C179.909 127.223 179.841 127.622 179.706 127.991C179.571 128.361 179.373 128.694 179.114 128.99C178.861 129.281 178.549 129.531 178.177 129.738C177.81 129.946 177.393 130.103 176.925 130.209C177.133 130.327 177.314 130.498 177.466 130.722L181 135.503H179.546C179.247 135.503 179.028 135.388 178.887 135.158L175.741 130.855C175.645 130.721 175.541 130.626 175.429 130.57C175.322 130.509 175.153 130.478 174.922 130.478H173.679V135.503H172.047V123.462H175.471ZM173.679 129.293H175.403C175.877 129.293 176.294 129.237 176.654 129.125C177.021 129.007 177.325 128.845 177.567 128.638C177.815 128.425 178.002 128.173 178.126 127.882C178.25 127.591 178.312 127.268 178.312 126.915C178.311 126.198 178.075 125.658 177.602 125.294C177.128 124.93 176.418 124.747 175.471 124.747H173.679V129.293Z" fill="#600B0B"/>
<path d="M146.856 94.9834C149.998 94.9834 152.533 95.9704 154.403 97.7637L152.379 100.361C150.811 98.8099 148.667 98.0928 146.554 98.0928C144.441 98.0929 143.141 99.0801 143.141 100.573C143.141 102.066 145.195 102.635 147.576 103.235C150.895 104.069 154.849 105.086 154.849 109.417C154.849 112.732 152.492 115.57 147.06 115.57C143.349 115.57 140.659 114.283 138.878 112.402H138.888L140.848 109.712C142.237 111.175 144.411 112.461 147.219 112.461C150.027 112.461 151.262 111.057 151.262 109.74C151.262 107.948 149.118 107.408 146.673 106.784C143.384 105.979 139.519 105.02 139.519 100.808C139.519 97.522 142.446 94.9834 146.856 94.9834Z" fill="#600B0B"/>
<path d="M13.7979 98.3633H3.53223V103.535H13.584V106.614H3.53223V112.144H13.7979V115.223H0V95.2842H13.7979V98.3633Z" fill="#600B0B"/>
<path d="M73.9297 98.3633H63.6641V103.535H73.7158V106.614H63.6641V112.144H73.9297V115.223H60.1318V95.2842H73.9297V98.3633Z" fill="#600B0B"/>
<path d="M127.815 98.3633H117.55V103.535H127.602V106.614H117.55V112.144H127.815V115.223H114.018V95.2842H127.815V98.3633Z" fill="#600B0B"/>
<path fill-rule="evenodd" clip-rule="evenodd" d="M95.1436 95.2842C99.1271 95.2843 101.722 97.8524 101.722 101.53C101.722 105.208 99.3641 106.996 96.9541 107.39L101.876 115.218H97.8027V115.212L93.332 107.772H89.8291V115.212H86.2969V95.2842H95.1436ZM89.8291 104.692H94.6621C96.6574 104.692 98.1053 103.435 98.1055 101.525C98.1055 99.6157 96.6566 98.3576 94.6621 98.3574H89.8291V104.692Z" fill="#600B0B"/>
<path d="M36.6211 108.4L42.1133 95.2842H47.0938V115.212H43.5605V100.421L37.374 115.212H35.8662L29.71 100.421V115.212H26.1777V95.2842H31.1592L36.6211 108.4Z" fill="#600B0B"/>
<path d="M181 98.3574H174.902V115.212H171.369V98.3574H165.272V95.2783H181V98.3574Z" fill="#600B0B"/>
<path fill-rule="evenodd" clip-rule="evenodd" d="M90.9326 0C95.635 0.0591216 99.6198 2.40387 101.69 6.33008C99.8796 7.06461 98.2524 8.08732 96.8516 9.37988C95.9963 6.57698 93.7996 4.8901 90.9316 4.81934V4.84863C88.6104 5.08965 86.0941 6.56436 85.209 9.53809L84.9951 10.2549L84.8525 10.7305H95.5469C94.7387 11.6827 94.0258 12.7465 93.4258 13.8984H84.7881L84.8896 14.3506L85.0371 15.0322C85.7557 18.3286 88.0819 20.7265 90.9326 20.7266C93.7833 20.7266 95.8675 19.563 97.1318 17.2949L97.1436 17.2832V17.2715L97.1787 17.2012V17.1895C98.3959 14.2218 100.64 11.8296 103.674 10.6543C106.778 9.44947 110.495 9.33725 113.648 10.4131C116.683 11.4477 119.223 13.6339 120.673 16.4727C122.376 19.8228 122.524 23.954 121.13 27.4385L120.715 28.4668L121.808 28.7021C127.513 29.907 131.698 34.543 131.698 40.4551L131.7 40.4531V40.46H131.712C131.712 45.1143 129.283 49.0571 125.317 51.1084C124.576 49.3161 123.542 47.7059 122.236 46.3193C125.068 45.4728 126.808 43.2983 126.808 40.4658C126.808 38.1333 125.075 35.6768 122.07 34.8008L120.864 34.4492V45.0273C119.897 44.2284 118.823 43.5235 117.659 42.9297V34.3906L117.201 34.4912L116.513 34.6377C113.182 35.3481 110.76 37.5991 110.76 40.4736C110.76 43.348 111.934 45.3522 114.227 46.6035L114.238 46.6143H114.25L114.309 46.6445L114.321 46.6504H114.333C117.331 47.8552 119.748 50.0766 120.936 53.0791C122.152 56.1525 122.264 59.8312 121.178 62.9521C120.133 65.9547 117.925 68.4702 115.058 69.9043C111.673 71.591 107.499 71.7377 103.978 70.3564L103.354 70.1094L102.939 69.9443L102.701 71.0254C101.484 76.6787 96.7698 80.8219 90.8203 80.8281C86.1308 80.828 82.135 78.4241 80.0625 74.499C81.8733 73.7645 83.5005 72.7408 84.9014 71.4482C85.7557 74.2511 87.9534 75.9086 90.8203 75.9795C93.1543 75.9795 95.6607 74.264 96.5449 71.29L96.7578 70.5732L96.9004 70.0977H86.208C87.0152 69.1455 87.7272 68.0816 88.3271 66.9297H96.9658L96.8643 66.4775L96.7158 65.7959C95.9972 62.4995 93.7642 60.3721 90.8193 60.1016V60.0723C87.9163 60.1252 85.8853 61.2603 84.6211 63.5283L84.6094 63.54V63.5508L84.5801 63.6104L84.5732 63.6221V63.6338C83.356 66.6014 81.1116 68.9927 78.0781 70.168C74.9732 71.3728 71.2575 71.4849 68.1045 70.4092C65.071 69.3746 62.529 67.1893 61.0801 64.3506C59.376 61.0004 59.2275 56.8684 60.623 53.3838L61.04 52.3555L60.6006 52.2617L59.9473 52.1211C54.2413 50.9162 50.3407 46.2381 50.0557 40.3672H50.0439C50.1038 35.7139 52.473 31.7711 56.4385 29.7197C57.1806 31.5121 58.2147 33.1222 59.5205 34.5088C56.6888 35.3553 55.0207 37.5236 54.9492 40.3623C54.9493 42.5309 56.6821 45.1513 59.6865 46.0273L60.4111 46.2383L60.8916 46.3789V35.8008C61.8599 36.5997 62.934 37.3046 64.0977 37.8984V46.4375L64.5547 46.3369L65.2432 46.1904C68.5736 45.4801 70.7228 43.2694 70.9961 40.3545H71.0205C70.9607 37.4802 69.8196 35.4769 67.5283 34.2256L67.5166 34.2139H67.5049L67.4453 34.1836L67.4336 34.1777H67.4219C64.4237 32.9729 62.0067 30.7516 60.8193 27.749C59.6021 24.6756 59.4893 20.9969 60.5762 17.876C61.6215 14.8725 63.8303 12.3579 66.6982 10.9238C70.0827 9.23735 74.2562 9.0906 77.7764 10.4717L78.4004 10.7188L78.8154 10.8838L78.9111 10.4492L79.0527 9.80273C80.2699 4.1495 84.9959 0.2876 90.9326 0ZM65.8301 59.9961L65.9785 60.6709C66.5903 63.4621 68.5547 65.895 71.5293 66.3242C73.0017 66.5356 74.6403 66.3428 75.9941 65.7256C77.2774 65.1433 78.2684 64.1379 78.9453 62.9277L78.957 62.916V62.9043L78.9863 62.8457L78.9932 62.834V62.8223C79.261 62.1755 79.5814 61.5412 79.9434 60.9473L80.4531 60.1074L80.7979 59.5439H65.7295L65.8301 59.9961ZM110.211 65.292L110.668 65.1914L111.352 65.0449C114.171 64.4394 116.629 62.4942 117.062 59.5498C117.276 58.0924 117.081 56.4709 116.457 55.1309C115.869 53.8607 114.853 52.88 113.631 52.21L113.613 52.1982L113.554 52.1689L113.542 52.1621H113.53C112.877 51.897 112.237 51.5799 111.637 51.2217L110.775 50.71L110.774 50.7119L110.78 50.7178L110.211 50.377V65.292ZM106.524 52.2324L105.806 52.4316C104.393 52.8195 103.08 53.5958 102.196 54.7773C101.359 55.8996 100.979 57.3039 101.015 58.6904C101.092 61.5471 103.027 64.0677 105.794 64.873L106.999 65.2256V52.5967H107.005V52.1035L106.524 52.2324ZM85.2949 25.2168C84.2379 29.9232 80.6519 33.345 75.6943 34.3555L75.0654 34.4844L74.6436 34.5723L74.7861 34.9717L74.999 35.5771C75.5094 37.0291 75.7714 38.6385 75.7949 40.3662H75.7832C75.718 41.8711 75.404 43.3231 74.8574 44.6865L74.6143 45.2969L74.4473 45.7031L75.5283 45.9375C80.2837 46.9839 83.7388 50.5328 84.7598 55.4395L84.8896 56.0625L84.9785 56.4795L85.3828 56.3389L85.9941 56.1279C87.4602 55.6227 89.0873 55.3641 90.832 55.3408V55.3525C92.3577 55.417 93.8248 55.7276 95.2021 56.2686L95.8203 56.5098L96.2295 56.6738L96.4678 55.6045C97.524 50.8982 101.112 47.4772 106.068 46.4668L106.698 46.3379L107.119 46.25L106.977 45.8506L106.763 45.2451C106.252 43.7931 105.991 42.183 105.967 40.4551H105.979C106.044 38.9502 106.359 37.4991 106.904 36.1357L107.147 35.5254H107.151L107.317 35.1201L106.884 35.0264L106.236 34.8848C101.48 33.8385 98.0257 30.2889 97.0039 25.3818L96.873 24.7598L96.7832 24.3418L96.3799 24.4824L95.7686 24.6943C94.3015 25.1996 92.6736 25.4814 90.9287 25.4814V25.4697C89.4618 25.4697 87.9359 25.0947 86.5586 24.5537L85.9414 24.3125L85.5312 24.1475L85.2949 25.2168ZM72.3984 50.4346C69.5124 50.5107 66.9659 52.4266 66.1523 55.165L65.9385 55.8818V55.8877L65.7959 56.3633H79.0537L78.9238 55.8877L78.7217 55.1768C78.3298 53.7777 77.5461 52.4796 76.3525 51.6035C75.2186 50.7749 73.7994 50.3997 72.3984 50.4346ZM71.0732 15.6133L70.3906 15.7607C67.5709 16.3664 65.1133 18.3107 64.6797 21.2549C64.4661 22.7123 64.6616 24.3338 65.2852 25.6738C65.8734 26.944 66.8888 27.9247 68.1113 28.5947L68.123 28.6064H68.1348L68.1943 28.6367L68.2061 28.6426H68.2178C68.8712 28.9077 69.5123 29.2247 70.1123 29.583L70.9668 30.0908L70.96 30.0879L71.5303 30.4287V15.5137L71.0732 15.6133ZM102.827 24.9219L103.028 25.6328C103.42 27.032 104.204 28.3309 105.397 29.2061C106.531 30.0346 107.951 30.4109 109.352 30.376C112.237 30.2997 114.783 28.3837 115.597 25.6455L115.811 24.9287V24.9219L115.953 24.4463H102.696L102.827 24.9219ZM74.749 28.2139H74.7412V28.707L75.2217 28.5781L75.9404 28.3779C77.354 27.9901 78.6666 27.2147 79.5508 26.0332C80.3879 24.9108 80.7677 23.5058 80.7324 22.1191C80.6553 19.2627 78.7196 16.7418 75.9531 15.9365L75.2295 15.7256L74.749 15.585V28.2139ZM110.218 14.4805C108.745 14.2691 107.106 14.4619 105.753 15.0791C104.471 15.6613 103.479 16.6668 102.802 17.877L102.79 17.8887V17.9004L102.761 17.96L102.755 17.9707V17.9824C102.488 18.6291 102.167 19.2636 101.805 19.8574L101.289 20.71L100.944 21.2734H115.549V21.2617H116.019L115.917 20.8086L115.769 20.1338C115.157 17.3427 113.192 14.9097 110.218 14.4805Z" fill="#600B0B"/>
</svg>
