<svg width="233" height="66" viewBox="0 0 233 66" fill="none" xmlns="http://www.w3.org/2000/svg">
<path d="M89.9727 19.0578C89.0783 19.4411 88.1656 19.6237 87.2712 19.6237C85.8291 19.6237 84.5331 19.3681 83.4014 18.8752C82.2514 18.3824 81.2839 17.6888 80.499 16.8126C79.7141 15.9364 79.1118 14.9142 78.6919 13.7277C78.2721 12.5412 78.0713 11.2635 78.0713 9.89442C78.0713 8.48889 78.2903 7.19288 78.7102 5.98813C79.13 4.78339 79.7324 3.74292 80.5355 2.84849C81.3205 1.95406 82.2879 1.26042 83.4379 0.749316C84.5879 0.238212 85.8839 -0.0173403 87.3259 0.000913362C88.2934 0.000913362 89.2243 0.146943 90.1187 0.439002C91.0132 0.731062 91.8346 1.1509 92.5647 1.71676C93.2949 2.28263 93.8973 2.97627 94.3536 3.79769C94.8282 4.6191 95.1203 5.5683 95.2115 6.64526H91.2687C91.0314 5.58655 90.5568 4.80164 89.8449 4.27228C89.133 3.74292 88.2934 3.48737 87.2894 3.48737C86.3585 3.48737 85.5736 3.66991 84.9164 4.01673C84.2593 4.3818 83.7482 4.8564 83.3284 5.45877C82.9268 6.06115 82.6347 6.75479 82.4339 7.52144C82.2514 8.2881 82.1601 9.09126 82.1601 9.91268C82.1601 10.6976 82.2514 11.4642 82.4339 12.2126C82.6165 12.961 82.9085 13.6364 83.3101 14.2206C83.7117 14.8229 84.241 15.2975 84.8799 15.6626C85.5188 16.0277 86.322 16.2102 87.2529 16.2102C88.6219 16.2102 89.6807 15.8634 90.4291 15.1697C91.1775 14.4761 91.6155 13.4722 91.7433 12.1579H87.5815V9.07301H95.4671V19.2403H92.8385L92.4187 17.1046C91.6886 18.0538 90.8671 18.711 89.9727 19.0943V19.0578Z" fill="#48565E"/>
<path d="M101.984 5.62416V8.14318H102.039C102.222 7.72334 102.459 7.34001 102.751 6.97494C103.043 6.60986 103.39 6.31781 103.773 6.06225C104.156 5.8067 104.576 5.60591 105.014 5.47813C105.452 5.3321 105.909 5.27734 106.383 5.27734C106.621 5.27734 106.895 5.31385 107.205 5.40512V8.87332C107.022 8.83682 106.822 8.80031 106.566 8.78206C106.31 8.7638 106.091 8.74555 105.854 8.74555C105.16 8.74555 104.595 8.85507 104.12 9.09237C103.645 9.32967 103.262 9.62173 102.97 10.0233C102.678 10.4249 102.477 10.8812 102.349 11.4106C102.222 11.9399 102.167 12.5058 102.167 13.1264V19.2597H98.4248V5.62416H102.003H101.984Z" fill="#48565E"/>
<path d="M108.262 9.49395C108.591 8.61777 109.065 7.85112 109.686 7.23049C110.306 6.60986 111.037 6.13527 111.895 5.78845C112.752 5.44163 113.72 5.27734 114.779 5.27734C115.856 5.27734 116.823 5.45988 117.681 5.78845C118.557 6.13527 119.287 6.60986 119.908 7.23049C120.529 7.85112 120.985 8.59952 121.332 9.49395C121.66 10.3701 121.825 11.3741 121.825 12.4511C121.825 13.5463 121.66 14.5137 121.313 15.3899C120.967 16.2661 120.51 17.0145 119.89 17.6351C119.269 18.2557 118.539 18.7303 117.663 19.0589C116.787 19.3875 115.819 19.5517 114.76 19.5517C113.683 19.5517 112.734 19.3875 111.876 19.0406C111.018 18.7121 110.288 18.2192 109.668 17.5986C109.065 16.978 108.591 16.2296 108.244 15.3534C107.897 14.4772 107.751 13.4915 107.751 12.4145C107.751 11.3193 107.915 10.3336 108.262 9.45744V9.49395ZM111.657 14.0574C111.767 14.5685 111.949 15.0431 112.187 15.4447C112.442 15.8645 112.771 16.1931 113.191 16.4304C113.61 16.6859 114.14 16.7954 114.76 16.7954C115.399 16.7954 115.929 16.6677 116.348 16.4304C116.787 16.1931 117.115 15.8645 117.371 15.4447C117.626 15.0248 117.809 14.5685 117.918 14.0574C118.028 13.5463 118.083 13.0169 118.083 12.4693C118.083 11.9217 118.028 11.3923 117.937 10.863C117.827 10.3336 117.644 9.87728 117.407 9.4757C117.152 9.07412 116.805 8.74555 116.385 8.49C115.965 8.23444 115.418 8.10667 114.797 8.10667C114.158 8.10667 113.647 8.23444 113.227 8.49C112.807 8.74555 112.46 9.07412 112.205 9.4757C111.949 9.87728 111.767 10.3519 111.657 10.863C111.548 11.3923 111.493 11.9217 111.493 12.4693C111.493 13.0169 111.548 13.5463 111.639 14.0574H111.657Z" fill="#48565E"/>
<path d="M133.432 19.2794V17.381H133.359C132.885 18.1659 132.264 18.7318 131.516 19.0786C130.767 19.4254 129.982 19.6079 129.197 19.6079C128.193 19.6079 127.372 19.4802 126.733 19.2064C126.094 18.9508 125.583 18.5675 125.218 18.0929C124.853 17.6183 124.597 17.0159 124.451 16.3223C124.305 15.6286 124.232 14.862 124.232 14.0223V5.66211H127.974V13.3469C127.974 14.4604 128.139 15.3001 128.486 15.8659C128.832 16.4135 129.453 16.6874 130.347 16.7056C131.37 16.7056 132.1 16.4135 132.556 15.7929C133.012 15.1905 133.25 14.1866 133.25 12.8176V5.69862H136.992V19.2976H133.414L133.432 19.2794Z" fill="#48565E"/>
<path d="M143.402 5.69643V7.59482H143.475C143.95 6.80991 144.57 6.22579 145.319 5.87897C146.067 5.51389 146.852 5.34961 147.637 5.34961C148.641 5.34961 149.462 5.49564 150.101 5.76944C150.74 6.04325 151.251 6.42658 151.616 6.90117C151.981 7.37577 152.237 7.97814 152.383 8.67179C152.529 9.36543 152.602 10.1321 152.602 10.9718V19.332H148.86V11.6471C148.86 10.5337 148.696 9.69399 148.349 9.12813C148.002 8.58052 147.382 8.28846 146.487 8.28846C145.465 8.28846 144.735 8.58052 144.278 9.20114C143.822 9.80352 143.585 10.8075 143.585 12.1765V19.2954H139.843V5.69643H143.42H143.402Z" fill="#48565E"/>
<path d="M165.069 17.5952C164.631 18.3253 164.047 18.8547 163.335 19.1832C162.623 19.5118 161.82 19.6761 160.926 19.6578C159.904 19.6578 159.009 19.457 158.243 19.0555C157.476 18.6539 156.837 18.1245 156.344 17.4491C155.851 16.7737 155.468 15.9888 155.212 15.1127C154.957 14.2365 154.829 13.3238 154.829 12.3746C154.829 11.4619 154.957 10.5857 155.212 9.72782C155.468 8.86989 155.851 8.12149 156.344 7.48261C156.837 6.84373 157.476 6.31437 158.224 5.93104C158.973 5.52946 159.849 5.34692 160.853 5.34692C161.656 5.34692 162.423 5.52946 163.153 5.85803C163.883 6.20485 164.449 6.6977 164.869 7.37309H164.923V0.564453H168.665L168.629 19.3293H165.088V17.5952H165.033H165.069ZM164.923 10.8778C164.814 10.3667 164.631 9.91035 164.394 9.50877C164.157 9.10719 163.81 8.79688 163.408 8.54132C163.007 8.28577 162.496 8.17625 161.893 8.17625C161.273 8.17625 160.762 8.30403 160.342 8.54132C159.922 8.77862 159.575 9.10719 159.32 9.50877C159.064 9.91035 158.881 10.3667 158.772 10.8961C158.662 11.4072 158.608 11.9548 158.608 12.5206C158.608 13.05 158.662 13.5793 158.79 14.0905C158.918 14.6198 159.1 15.0944 159.374 15.496C159.648 15.9158 159.977 16.2444 160.396 16.4999C160.816 16.7555 161.309 16.8833 161.875 16.8833C162.496 16.8833 163.007 16.7555 163.408 16.5182C163.828 16.2809 164.157 15.9523 164.394 15.5325C164.631 15.1127 164.814 14.6563 164.923 14.127C165.033 13.5976 165.088 13.05 165.088 12.5024C165.088 11.9365 165.033 11.4072 164.942 10.8778H164.923Z" fill="#48565E"/>
<path d="M170.437 4.03266V0.564453L185.824 0.600961V4.06917H180.202L180.166 19.3658H176.04L176.059 4.05091H170.437V4.03266Z" fill="#48565E"/>
<path d="M188.708 5.78823V8.30724H188.763C188.945 7.8874 189.182 7.50408 189.475 7.139C189.767 6.77393 190.113 6.48187 190.497 6.22632C190.88 5.97076 191.3 5.76997 191.738 5.6422C192.176 5.49617 192.632 5.44141 193.107 5.44141C193.344 5.44141 193.618 5.47791 193.928 5.56918V9.03739C193.746 9.00088 193.545 8.96437 193.29 8.94612C193.052 8.92787 192.815 8.90961 192.578 8.90961C191.902 8.90961 191.318 9.01913 190.844 9.25643C190.369 9.47548 189.986 9.78579 189.694 10.1874C189.402 10.589 189.201 11.0453 189.073 11.5747C188.945 12.104 188.89 12.6699 188.89 13.2905V19.4237H185.148V5.76997H188.726L188.708 5.78823Z" fill="#48565E"/>
<path d="M204.569 19.4083V17.5099H204.496C204.021 18.2948 203.401 18.8607 202.652 19.2075C201.904 19.5543 201.119 19.7369 200.334 19.7369C199.33 19.7369 198.509 19.6091 197.87 19.3353C197.231 19.0615 196.72 18.6964 196.355 18.2218C195.99 17.7472 195.734 17.1448 195.588 16.4512C195.442 15.7575 195.369 14.9909 195.369 14.1512V5.79102H199.111V13.4758C199.111 14.5893 199.275 15.429 199.622 15.9948C199.969 16.5425 200.59 16.8163 201.484 16.8345C202.506 16.8345 203.236 16.5425 203.693 15.9218C204.149 15.3195 204.386 14.3155 204.386 12.9465V5.82752H208.128V19.4265H204.551L204.569 19.4083Z" fill="#48565E"/>
<path d="M218.441 5.84274V8.3435H215.703V15.0791C215.703 15.718 215.794 16.1378 216.013 16.3386C216.232 16.5577 216.652 16.6489 217.273 16.6489C217.492 16.6489 217.692 16.6489 217.875 16.6307C218.076 16.6307 218.258 16.5942 218.423 16.5577V19.4418C218.094 19.4965 217.747 19.533 217.364 19.5513C216.98 19.5513 216.597 19.5695 216.232 19.5695C215.648 19.5695 215.1 19.533 214.589 19.4418C214.078 19.3687 213.622 19.2045 213.22 18.9854C212.819 18.7664 212.508 18.4378 212.289 18.018C212.07 17.5981 211.942 17.0505 211.942 16.3569V8.3435H209.697V5.84274H211.961V1.75391H215.703V5.82448H218.423L218.441 5.84274Z" fill="#48565E"/>
<path d="M223.975 0.660156V7.72434H224.048C224.523 6.93943 225.125 6.35532 225.874 6.00849C226.604 5.64342 227.334 5.47914 228.028 5.47914C229.032 5.47914 229.853 5.62517 230.492 5.89897C231.131 6.17278 231.642 6.55611 232.007 7.0307C232.372 7.5053 232.628 8.10767 232.774 8.80131C232.92 9.49495 232.993 10.2616 232.993 11.1013V19.4615H229.251V11.7767C229.251 10.6632 229.086 9.82352 228.74 9.25766C228.393 8.71004 227.772 8.41798 226.878 8.41798C225.856 8.41798 225.125 8.71004 224.669 9.33067C224.213 9.93304 223.975 10.937 223.975 12.306V19.425H220.233L220.27 0.660156H224.012H223.975Z" fill="#48565E"/>
<path d="M80.1891 41.7128C80.4994 42.3699 80.9375 42.881 81.4852 43.2643C82.0328 43.6477 82.6899 43.9215 83.4383 44.104C84.1867 44.2683 84.9899 44.3596 85.866 44.3596C86.3589 44.3596 86.8882 44.2865 87.4724 44.1588C88.0565 44.0127 88.5858 43.7937 89.0969 43.4834C89.5898 43.1731 90.0096 42.7897 90.3382 42.2969C90.6668 41.804 90.831 41.2382 90.8493 40.5445C90.8493 40.0152 90.7398 39.5588 90.5025 39.1755C90.2652 38.7922 89.9549 38.4636 89.5898 38.2081C89.2065 37.9525 88.8049 37.7335 88.3485 37.5692C87.8922 37.4049 87.4541 37.2589 87.016 37.1493L82.8359 36.1089C82.2883 35.9629 81.759 35.7986 81.2479 35.5795C80.7367 35.3605 80.2804 35.0867 79.8971 34.7399C79.5137 34.393 79.2034 33.9549 78.9661 33.4438C78.7288 32.9327 78.6193 32.3121 78.6193 31.582C78.6193 31.1256 78.7106 30.5963 78.8931 29.9756C79.0757 29.355 79.4042 28.7891 79.8788 28.2415C80.3534 27.6939 81.0288 27.2376 81.8685 26.8725C82.7081 26.4892 83.7851 26.3066 85.0994 26.3066C86.0303 26.3066 86.9065 26.4344 87.7462 26.6717C88.5858 26.909 89.316 27.2923 89.9549 27.7852C90.5755 28.278 91.0866 28.8804 91.4699 29.6106C91.8533 30.3407 92.0358 31.1804 92.0358 32.1478H90.2469C90.2104 31.4177 90.0461 30.7971 89.7723 30.2677C89.4803 29.7383 89.1152 29.282 88.6406 28.9169C88.1843 28.5518 87.6366 28.278 87.0343 28.0955C86.4319 27.913 85.793 27.8217 85.1359 27.8217C84.5153 27.8217 83.9311 27.8765 83.3653 28.0225C82.7994 28.1503 82.2883 28.3693 81.8685 28.6431C81.4304 28.9352 81.1018 29.3185 80.828 29.7931C80.5725 30.2677 80.4264 30.8518 80.4264 31.5455C80.4264 31.9835 80.4994 32.3669 80.6455 32.6954C80.7915 33.024 80.9923 33.2978 81.2661 33.5169C81.5217 33.7359 81.832 33.9367 82.1788 34.0645C82.5256 34.2105 82.8907 34.32 83.274 34.4113L87.8557 35.543C88.5128 35.7256 89.1517 35.9446 89.7358 36.1819C90.3199 36.4375 90.8311 36.7478 91.2874 37.1311C91.7255 37.5144 92.0906 37.9708 92.3461 38.5184C92.6017 39.066 92.7294 39.7231 92.7294 40.4898C92.7294 40.7088 92.7112 40.9826 92.6564 41.3294C92.6017 41.6763 92.5104 42.0596 92.3461 42.4429C92.1818 42.8445 91.9445 43.2278 91.6342 43.6294C91.3239 44.031 90.9041 44.3961 90.3747 44.7246C89.8454 45.0532 89.17 45.3088 88.3851 45.5095C87.6001 45.7103 86.6509 45.8016 85.5375 45.8016C84.4422 45.8016 83.4018 45.6738 82.4708 45.4183C81.5399 45.1627 80.7185 44.7794 80.0614 44.25C79.386 43.7207 78.8931 43.0453 78.528 42.2239C78.163 41.4025 78.0169 40.4168 78.0717 39.2485H79.8606C79.8423 40.216 79.9883 41.0191 80.2987 41.6763L80.1891 41.7128Z" fill="#48565E"/>
<path d="M95.3946 31.946L99.8485 43.5188L104.047 31.9642H105.708L99.7937 47.5712C99.5564 48.1553 99.3191 48.6299 99.1001 48.995C98.881 49.3783 98.662 49.6703 98.4064 49.8894C98.1509 50.1084 97.8588 50.2727 97.512 50.364C97.1652 50.4553 96.7453 50.51 96.216 50.51C95.8874 50.4918 95.6319 50.4735 95.4493 50.4735C95.2668 50.4735 95.1025 50.437 94.9565 50.3822V48.995C95.1573 49.0315 95.3398 49.068 95.5223 49.0862C95.7049 49.1227 95.8874 49.1227 96.0882 49.1227C96.4533 49.1227 96.7636 49.068 97.0009 48.9584C97.2382 48.8489 97.439 48.7029 97.6215 48.5204C97.804 48.3378 97.9501 48.1188 98.0779 47.845C98.2056 47.5894 98.3334 47.2974 98.4794 46.9688L99.0636 45.4537L93.6787 31.9277H95.4493L95.3946 31.946Z" fill="#48565E"/>
<path d="M115.144 34.6141C114.943 34.2308 114.688 33.9205 114.377 33.6832C114.067 33.4459 113.684 33.2633 113.264 33.1356C112.844 33.026 112.388 32.9713 111.931 32.9713C111.566 32.9713 111.183 33.0078 110.818 33.0808C110.435 33.1538 110.088 33.2816 109.777 33.4824C109.467 33.6649 109.212 33.9022 109.011 34.2125C108.81 34.5046 108.719 34.8879 108.719 35.3077C108.719 35.6728 108.81 35.9831 108.992 36.2387C109.175 36.4942 109.412 36.7133 109.686 36.8776C109.96 37.0601 110.27 37.2061 110.599 37.3156C110.927 37.4252 111.238 37.5164 111.512 37.5895L113.72 38.1006C114.195 38.1736 114.669 38.3014 115.126 38.4839C115.582 38.6664 116.002 38.9037 116.367 39.214C116.732 39.5061 117.024 39.8894 117.243 40.3275C117.462 40.7656 117.59 41.2767 117.59 41.8791C117.59 42.6092 117.426 43.2481 117.079 43.7592C116.75 44.2703 116.312 44.6902 115.801 45.0187C115.29 45.3473 114.706 45.5663 114.049 45.7124C113.392 45.8584 112.753 45.9132 112.132 45.9132C110.544 45.9132 109.248 45.5298 108.262 44.7814C107.277 44.033 106.711 42.81 106.583 41.1489H108.244C108.317 42.2807 108.719 43.1203 109.467 43.6862C110.215 44.2521 111.128 44.5441 112.242 44.5441C112.643 44.5441 113.063 44.5076 113.483 44.4163C113.921 44.3251 114.304 44.179 114.688 43.9783C115.053 43.7775 115.363 43.5037 115.6 43.1751C115.838 42.8465 115.965 42.4449 115.965 41.9886C115.965 41.587 115.892 41.2402 115.71 40.9664C115.546 40.6926 115.327 40.4735 115.034 40.2728C114.761 40.0902 114.432 39.9259 114.067 39.8164C113.702 39.6886 113.337 39.5974 112.972 39.5061L110.836 39.0315C110.289 38.8855 109.796 38.7212 109.339 38.5386C108.883 38.3561 108.481 38.1188 108.135 37.845C107.788 37.5712 107.532 37.2426 107.331 36.8411C107.131 36.4395 107.039 35.9649 107.039 35.3808C107.039 34.7054 107.185 34.103 107.496 33.6284C107.806 33.1356 108.208 32.7522 108.7 32.4419C109.193 32.1498 109.741 31.9308 110.343 31.7848C110.946 31.6387 111.548 31.584 112.15 31.584C112.844 31.584 113.465 31.6753 114.049 31.8578C114.633 32.0403 115.144 32.3141 115.6 32.6792C116.038 33.0443 116.403 33.5006 116.659 34.0482C116.915 34.5958 117.061 35.2347 117.097 35.9649H115.436C115.436 35.4538 115.308 35.0157 115.126 34.6324L115.144 34.6141Z" fill="#48565E"/>
<path d="M125.369 31.999V33.3863H122.612V42.5314C122.612 43.079 122.667 43.4988 122.813 43.8091C122.959 44.1195 123.342 44.2837 123.926 44.3202C124.401 44.3202 124.876 44.302 125.35 44.2472V45.6345C125.095 45.6345 124.857 45.6345 124.602 45.6528C124.346 45.671 124.109 45.671 123.872 45.671C122.776 45.671 121.992 45.452 121.553 45.0139C121.115 44.5758 120.915 43.7909 120.933 42.6409V33.368H118.578V31.9807H120.951V27.9102H122.612V31.9807H125.369V31.999Z" fill="#48565E"/>
<path d="M128.963 41.0889C129.127 41.7278 129.401 42.3119 129.766 42.8048C130.131 43.3159 130.606 43.7357 131.154 44.0643C131.719 44.3928 132.395 44.5754 133.18 44.5754C134.384 44.5754 135.334 44.2651 136.027 43.6262C136.721 42.9873 137.177 42.1476 137.451 41.1072H139.112C138.765 42.6587 138.108 43.8452 137.177 44.6849C136.246 45.5246 134.914 45.9444 133.198 45.9444C132.121 45.9444 131.208 45.7436 130.423 45.3785C129.639 44.9952 129.018 44.4841 128.525 43.827C128.032 43.1698 127.667 42.4032 127.43 41.5453C127.193 40.6691 127.083 39.7564 127.083 38.7889C127.083 37.8945 127.211 37.0183 127.448 36.1604C127.685 35.3025 128.05 34.5358 128.543 33.8604C129.036 33.1851 129.675 32.6374 130.442 32.2359C131.227 31.8343 132.158 31.6152 133.216 31.6152C134.293 31.6152 135.224 31.8343 136.009 32.2724C136.776 32.7105 137.396 33.2946 137.889 33.9882C138.364 34.7001 138.711 35.5215 138.93 36.4342C139.13 37.3469 139.222 38.2961 139.185 39.227H128.744C128.744 39.8112 128.817 40.4135 128.981 41.0707L128.963 41.0889ZM137.177 36.0326C136.977 35.4485 136.684 34.9374 136.319 34.4993C135.954 34.0612 135.498 33.6962 134.987 33.4224C134.476 33.1485 133.873 33.0208 133.198 33.0025C132.523 33.0025 131.902 33.1303 131.391 33.4041C130.88 33.6779 130.423 34.0247 130.04 34.4811C129.675 34.9192 129.383 35.4485 129.164 36.0326C128.945 36.6168 128.799 37.2191 128.726 37.8398H137.506C137.506 37.2191 137.378 36.6168 137.177 36.0326Z" fill="#48565E"/>
<path d="M142.943 32.0168V34.2985H143.016C143.454 33.4589 144.038 32.8017 144.75 32.3271C145.462 31.8525 146.375 31.6152 147.47 31.6152C148.364 31.6152 149.167 31.8343 149.898 32.2724C150.628 32.7105 151.102 33.3858 151.358 34.2803C151.759 33.3858 152.362 32.7287 153.147 32.2906C153.932 31.8525 154.771 31.6335 155.666 31.6335C158.659 31.6335 160.156 33.2216 160.156 36.3977V45.5976H158.477V36.4707C158.477 35.3572 158.258 34.4993 157.783 33.9152C157.309 33.3311 156.487 33.039 155.282 33.039C154.57 33.039 153.968 33.1668 153.494 33.4406C153.019 33.7144 152.636 34.0795 152.362 34.5358C152.088 34.9922 151.887 35.5215 151.759 36.1056C151.65 36.6898 151.595 37.3104 151.577 37.931V45.6158H149.916V36.416C149.916 35.9596 149.879 35.5215 149.788 35.1199C149.697 34.7001 149.532 34.3533 149.313 34.043C149.094 33.7327 148.802 33.4954 148.437 33.3128C148.072 33.1303 147.616 33.0573 147.105 33.039C146.411 33.039 145.79 33.1668 145.279 33.4224C144.768 33.6779 144.348 34.0247 144.02 34.4811C143.691 34.9192 143.454 35.4485 143.29 36.0509C143.125 36.6533 143.052 37.3104 143.052 38.0405V45.6158H141.373V32.0533H142.925L142.943 32.0168Z" fill="#48565E"/>
<path d="M171.11 34.7228C170.909 34.3395 170.653 34.0292 170.343 33.7919C170.014 33.5546 169.649 33.372 169.229 33.2442C168.81 33.1347 168.353 33.08 167.879 33.08C167.514 33.08 167.13 33.1165 166.765 33.1895C166.382 33.2625 166.035 33.3903 165.725 33.5911C165.414 33.7736 165.159 34.0109 164.958 34.3212C164.757 34.6133 164.666 34.9966 164.666 35.4164C164.666 35.7815 164.757 36.0918 164.94 36.3474C165.122 36.6029 165.36 36.822 165.633 36.9863C165.907 37.1505 166.218 37.3148 166.546 37.4243C166.875 37.5339 167.185 37.6251 167.459 37.6982L169.667 38.2093C170.142 38.2823 170.617 38.41 171.073 38.5926C171.529 38.7751 171.949 39.0124 172.314 39.3227C172.679 39.6148 172.971 39.9981 173.19 40.4362C173.409 40.8743 173.537 41.3854 173.537 41.9878C173.537 42.7179 173.373 43.3568 173.044 43.8679C172.716 44.379 172.278 44.7988 171.767 45.1274C171.256 45.456 170.671 45.675 170.014 45.8211C169.357 45.9671 168.718 46.0218 168.098 46.0218C166.51 46.0218 165.214 45.6385 164.228 44.8901C163.242 44.1417 162.676 42.9187 162.53 41.2576H164.191C164.264 42.3894 164.666 43.229 165.414 43.7949C166.163 44.3608 167.075 44.6528 168.189 44.6528C168.591 44.6528 169.01 44.6163 169.43 44.525C169.868 44.4338 170.27 44.2877 170.635 44.087C171 43.8679 171.31 43.6124 171.548 43.2838C171.785 42.9552 171.913 42.5536 171.913 42.0973C171.913 41.6957 171.84 41.3489 171.657 41.0933C171.493 40.8195 171.274 40.6005 170.982 40.3997C170.708 40.2172 170.379 40.0529 170.014 39.9434C169.649 39.8156 169.284 39.7243 168.919 39.633L166.783 39.1585C166.236 39.0124 165.743 38.8481 165.287 38.6656C164.83 38.4831 164.429 38.2458 164.1 37.972C163.753 37.6982 163.498 37.3696 163.297 36.968C163.096 36.5664 163.005 36.0918 163.005 35.5077C163.005 34.8323 163.151 34.23 163.461 33.7554C163.772 33.2625 164.173 32.8792 164.666 32.5689C165.159 32.2586 165.706 32.0578 166.309 31.9117C166.911 31.7657 167.514 31.7109 168.116 31.7109C168.791 31.7109 169.43 31.8022 170.014 31.9847C170.598 32.1673 171.11 32.4411 171.566 32.8062C172.004 33.1712 172.369 33.6276 172.625 34.1752C172.88 34.7228 173.026 35.3617 173.063 36.0918H171.402C171.402 35.5807 171.274 35.1426 171.091 34.7593L171.11 34.7228Z" fill="#48565E"/>
<path d="M7.09277 52.1113C8.85764 52.1113 10.5276 52.8002 11.7627 54.0381L11.7881 54.0625C13.0232 55.3006 13.7109 56.9757 13.7109 58.7461C13.7109 60.5206 13.0449 62.1927 11.791 63.4268C10.528 64.6697 8.87949 65.3564 7.11719 65.3564C5.28697 65.3563 3.66373 64.6247 2.44727 63.4053C1.23138 62.1864 0.500019 60.5339 0.5 58.7217C0.5 55.0713 3.45424 52.1114 7.09277 52.1113Z" stroke="#48565E"/>
<path d="M24.2588 17.7227C27.8974 17.7227 30.8516 20.6825 30.8516 24.333C30.8515 27.9834 27.8974 30.9434 24.2588 30.9434C22.1942 30.9434 20.1778 31.5378 18.4443 32.7031C17.2552 33.4805 16.2459 34.4913 15.4697 35.6826C14.3052 37.4208 13.711 39.4191 13.7109 41.5156C13.7109 43.6154 14.3317 45.6107 15.4658 47.3428V47.3438C16.2415 48.536 17.2505 49.5469 18.4395 50.3252V50.3262C20.14 51.4626 22.1487 52.083 24.2344 52.0879V52.0889C27.8729 52.0889 30.8271 55.0488 30.8271 58.6992C30.8271 60.4735 30.1618 62.1449 28.9082 63.3789C27.6452 64.622 25.9967 65.3095 24.2344 65.3096C22.5797 65.3096 21.0084 64.7042 19.8008 63.6084L19.5645 63.3828C18.3262 62.1171 17.6416 60.4656 17.6416 58.6992C17.6416 56.624 17.0202 54.6032 15.8848 52.8701C15.1083 51.6771 14.0987 50.665 12.9082 49.8867H12.9072C11.1964 48.7201 9.17952 48.126 7.09277 48.126C5.32782 48.1259 3.65791 47.4373 2.42285 46.1992C1.18775 44.9611 0.5 43.286 0.5 41.5156C0.500125 39.7459 1.18745 38.073 2.44434 36.8359C3.70723 35.593 5.35501 34.9064 7.11719 34.9062C9.18758 34.9062 11.2028 34.2822 12.9316 33.1445L12.9326 33.1455C14.1237 32.3668 15.1335 31.3539 15.9102 30.1602L15.9092 30.1592C17.0712 28.4223 17.666 26.4272 17.666 24.333C17.666 20.6826 20.6202 17.7227 24.2588 17.7227Z" stroke="#48565E"/>
<path d="M0.798828 5.1709C1.84117 1.79223 5.35522 -0.146082 8.73926 0.696289L9.06641 0.787109C12.5423 1.86631 14.4896 5.58307 13.4131 9.07324L13.3906 9.14551V9.16406C12.8542 10.8339 11.7211 12.185 10.1836 13.001C8.62806 13.8264 6.82156 13.9872 5.15137 13.46C3.40357 12.9067 2.03275 11.7345 1.25781 10.2266C0.47813 8.70927 0.272067 6.91818 0.798828 5.1709Z" stroke="#48565E"/>
<path d="M24.2588 0.517578C26.0214 0.517578 27.666 1.20448 28.9014 2.46582C30.1414 3.73191 30.8271 5.38461 30.8271 7.15234C30.8271 9.22694 31.4483 11.2467 32.583 12.9795V12.9805C33.3576 14.171 34.3649 15.1802 35.5518 15.958V15.959C37.2645 17.1296 39.2856 17.7256 41.376 17.7256C43.1409 17.7257 44.8109 18.4143 46.0459 19.6523C47.281 20.8905 47.9688 22.5655 47.9688 24.3359C47.9687 26.1103 47.3027 27.7816 46.0488 29.0156C44.7859 30.2586 43.1382 30.9462 41.376 30.9463C37.7374 30.9463 34.7823 27.9863 34.7822 24.3359C34.7822 22.3904 34.2371 20.4926 33.2334 18.835L33.0264 18.5068C32.2507 17.3149 31.2417 16.3044 30.0527 15.5264H30.0537C28.3466 14.3855 26.3288 13.7627 24.2344 13.7627C22.2965 13.7627 20.401 14.2866 18.7422 15.3145L18.4189 15.5234C17.2281 16.302 16.218 17.3142 15.4414 18.5078C14.2775 20.2227 13.6855 22.2446 13.6855 24.3359V24.542L13.7051 24.5615C13.5989 28.1189 10.6887 30.9707 7.11719 30.9707C5.28691 30.9706 3.66374 30.238 2.44727 29.0186C1.23293 27.8011 0.500061 26.1005 0.5 24.3359C0.5 22.5683 1.18562 20.8943 2.44434 19.6309C3.70723 18.388 5.35501 17.7013 7.11719 17.7012C9.18758 17.7012 11.2028 17.0772 12.9316 15.9395L12.9326 15.9404C14.1237 15.1618 15.1335 14.1489 15.9102 12.9551L15.9092 12.9541C17.0728 11.2393 17.666 9.21903 17.666 7.12793C17.666 5.35904 18.3519 3.68511 19.585 2.44727L19.5859 2.44824C20.8489 1.2052 22.4964 0.517612 24.2588 0.517578Z" stroke="#48565E"/>
<path d="M58.5664 52.1113C62.205 52.1113 65.1592 55.0712 65.1592 58.7217V58.9287L65.1787 58.9482C65.0721 62.5053 62.1621 65.3564 58.5908 65.3564C56.7644 65.3563 55.1389 64.6022 53.918 63.4014C52.7073 62.2106 51.9737 60.5366 51.9736 58.7217C51.9736 55.0713 54.9279 52.1114 58.5664 52.1113Z" stroke="#48565E"/>
<path d="M58.542 34.9023C60.311 34.9024 61.978 35.5693 63.209 36.8262C64.449 38.0923 65.1348 39.745 65.1348 41.5127C65.1347 45.1631 62.1805 48.123 58.542 48.123C56.4715 48.123 54.4554 48.745 52.7266 49.8828C51.5355 50.6615 50.5257 51.6744 49.749 52.8682L49.668 52.9922V53.042C48.5587 54.73 47.9932 56.7039 47.9932 58.7451C47.9932 62.3956 45.039 65.3555 41.4004 65.3555C39.5712 65.3554 37.9233 64.5991 36.7305 63.4033C35.5147 62.1845 34.7833 60.5328 34.7832 58.7207C34.7832 56.6214 34.1621 54.6008 33.0264 52.8672L33.0244 52.8643L32.7217 52.4336C31.9888 51.4438 31.0716 50.566 30.0537 49.8857C28.3466 48.7449 26.3287 48.123 24.2344 48.123C20.5959 48.1229 17.6416 45.1631 17.6416 41.5127C17.6416 37.8623 20.5958 34.9024 24.2344 34.9023C27.873 34.9023 30.8271 37.8622 30.8271 41.5127C30.8272 43.5879 31.4486 45.6087 32.584 47.3418L32.5859 47.3447C33.3613 48.5105 34.3935 49.545 35.5566 50.3223L35.5596 50.3242C37.2892 51.4629 39.3054 52.0859 41.4004 52.0859C43.4652 52.0859 45.4813 51.4898 47.2148 50.3242L47.2158 50.3252C48.4068 49.5465 49.4167 48.5336 50.1934 47.3398L50.1924 47.3389C51.3559 45.6241 51.9492 43.6037 51.9492 41.5127C51.9492 39.744 52.6353 38.0708 53.8682 36.833C55.1312 35.5899 56.7796 34.9023 58.542 34.9023Z" stroke="#48565E"/>
<path d="M58.5664 0.537109C62.205 0.537109 65.1592 3.49699 65.1592 7.14746C65.1591 10.7979 62.205 13.7578 58.5664 13.7578C56.8516 13.7578 55.2956 13.0937 54.125 12.0254L53.8965 11.8057C52.6954 10.5893 51.9737 8.94741 51.9736 7.14746C51.9736 3.49705 54.9279 0.537214 58.5664 0.537109Z" stroke="#48565E"/>
<path d="M41.623 0.375C45.3308 0.375194 48.3408 3.39125 48.3408 7.11035C48.3408 9.16002 48.9543 11.1561 50.0762 12.8691V12.8701C50.8434 14.0492 51.8412 15.0493 53.0176 15.8184V15.8174C54.7089 16.9713 56.8001 17.5585 58.7637 17.5586C60.5646 17.5586 62.2648 18.2374 63.5205 19.5195C64.7828 20.8085 65.4823 22.4921 65.4824 24.293C65.4824 26.099 64.8043 27.8037 63.5254 29.0625C62.2395 30.3281 60.5596 31.0283 58.7637 31.0283C56.6939 31.0284 54.7019 31.6441 52.9922 32.7695L52.9893 32.7705C51.8409 33.538 50.8216 34.5601 50.0557 35.7109C48.9019 37.4073 48.3164 39.5063 48.3164 41.4766C48.3164 43.2827 47.6384 44.9872 46.3594 46.2461C45.0735 47.5117 43.3935 48.2119 41.5977 48.2119C39.7326 48.2118 38.0785 47.4651 36.8398 46.2236C35.6016 44.9824 34.8555 43.2989 34.8555 41.4521C34.8555 37.733 37.8654 34.7169 41.5732 34.7168C43.6156 34.7168 45.6089 34.1269 47.3223 32.9736L47.3232 32.9746C48.4727 32.2064 49.4935 31.1834 50.2598 30.0312L50.2588 30.0303C51.4092 28.3126 51.9971 26.315 51.9971 24.2441C51.9971 22.1688 51.3829 20.1964 50.2607 18.4834C49.5896 17.452 48.7422 16.5575 47.7529 15.835L47.3203 15.5361C45.6342 14.4101 43.6416 13.7959 41.5732 13.7959C39.7876 13.7958 38.097 13.1032 36.8408 11.8574C35.5969 10.5979 34.9043 8.90204 34.9043 7.11035C34.9043 5.30424 35.5823 3.59968 36.8613 2.34082C38.1472 1.07524 39.8272 0.375 41.623 0.375Z" fill="url(#paint0_linear_258_585)" stroke="#00D7FF" stroke-width="0.75"/>
<defs>
<linearGradient id="paint0_linear_258_585" x1="40.1995" y1="-5.41662e-09" x2="56.2788" y2="50.535" gradientUnits="userSpaceOnUse">
<stop stop-color="#00DDFF"/>
<stop offset="1" stop-color="#00DDFF"/>
</linearGradient>
</defs>
</svg>
