<svg width="86" height="92" viewBox="0 0 86 92" fill="none" xmlns="http://www.w3.org/2000/svg">
<path d="M48.1896 15.7997L26.17 22.1245C18.1829 24.4186 14.7856 30.7676 16.9328 39.3578L24.205 68.4515C26.3874 77.1824 32.2627 80.7473 40.2498 78.4531L62.2695 72.1283C70.3853 69.7972 73.6794 63.5985 71.497 54.8676L64.2248 25.7739C62.0776 17.1838 56.3055 13.4685 48.1896 15.7997Z" fill="url(#paint0_linear_14477_30)"/>
<g filter="url(#filter0_f_14477_30)">
<rect width="37.4918" height="29.8946" rx="14" transform="matrix(-0.242498 -0.970152 0.961137 -0.276071 33.1216 68.3037)" fill="#098CA4" fill-opacity="0.5"/>
</g>
<foreignObject x="8.01636" y="5.85498" width="98.9602" height="108.316"><div xmlns="http://www.w3.org/1999/xhtml" style="backdrop-filter:blur(12px);clip-path:url(#bgblur_0_14477_30_clip_path);height:100%;width:100%"></div></foreignObject><path data-figma-bg-blur-radius="24" d="M68.8962 30.355C73.2028 30.355 76.6194 31.6886 78.9548 34.2231C81.2846 36.7516 82.4763 40.4084 82.4763 44.938V75.0581C82.4763 79.6588 81.2853 83.3244 78.9539 85.8433C76.6169 88.368 73.1996 89.6704 68.8962 89.6704H46.0994C41.8609 89.6704 38.4444 88.3674 36.0916 85.8452C33.7432 83.3279 32.5164 79.6625 32.5164 75.0581V44.938L32.531 44.0981C32.6746 39.952 33.8907 36.5902 36.0906 34.2212C38.4419 31.6892 41.8577 30.355 46.0994 30.355H68.8962Z" fill="#00D7FF" fill-opacity="0.8" stroke="url(#paint1_linear_14477_30)" stroke-linecap="round" stroke-linejoin="round"/>
<foreignObject x="29.4673" y="33.3894" width="55.8137" height="55.9856"><div xmlns="http://www.w3.org/1999/xhtml" style="backdrop-filter:blur(7.5px);clip-path:url(#bgblur_1_14477_30_clip_path);height:100%;width:100%"></div></foreignObject><g filter="url(#filter2_d_14477_30)" data-figma-bg-blur-radius="15">
<mask id="path-4-inside-1_14477_30" fill="white">
<path d="M46.8337 70.7039H68.1589C69.2442 70.797 70.0632 71.5889 70.0632 72.5437C70.0632 73.4729 69.2442 74.267 68.1589 74.3601H46.8337C46.0178 74.4532 45.2289 74.1043 44.7937 73.5222C44.3585 72.9167 44.3585 72.1474 44.7937 71.5652C45.2289 70.9599 46.0179 70.6341 46.8337 70.7039ZM68.1589 60.0818C69.3285 60.0818 70.281 60.8997 70.281 61.9011C70.2808 62.9024 69.3284 63.7175 68.1589 63.7175H46.8337C45.6617 63.7173 44.7128 62.9022 44.7126 61.9011C44.7126 60.8998 45.6616 60.082 46.8337 60.0818H68.1589ZM57.4646 48.3894C58.634 48.3894 59.5854 49.2066 59.5857 50.2078C59.5857 51.2091 58.6342 52.0251 57.4646 52.0251H46.8337C45.6615 52.025 44.7126 51.2091 44.7126 50.2078C44.7129 49.2067 45.6617 48.3895 46.8337 48.3894H57.4646Z"/>
</mask>
<path d="M46.8337 70.7039H68.1589C69.2442 70.797 70.0632 71.5889 70.0632 72.5437C70.0632 73.4729 69.2442 74.267 68.1589 74.3601H46.8337C46.0178 74.4532 45.2289 74.1043 44.7937 73.5222C44.3585 72.9167 44.3585 72.1474 44.7937 71.5652C45.2289 70.9599 46.0179 70.6341 46.8337 70.7039ZM68.1589 60.0818C69.3285 60.0818 70.281 60.8997 70.281 61.9011C70.2808 62.9024 69.3284 63.7175 68.1589 63.7175H46.8337C45.6617 63.7173 44.7128 62.9022 44.7126 61.9011C44.7126 60.8998 45.6616 60.082 46.8337 60.0818H68.1589ZM57.4646 48.3894C58.634 48.3894 59.5854 49.2066 59.5857 50.2078C59.5857 51.2091 58.6342 52.0251 57.4646 52.0251H46.8337C45.6615 52.025 44.7126 51.2091 44.7126 50.2078C44.7129 49.2067 45.6617 48.3895 46.8337 48.3894H57.4646Z" fill="url(#paint2_linear_14477_30)"/>
<path d="M46.8337 70.7039L46.7996 71.1024L46.8167 71.1039H46.8337V70.7039ZM68.1589 70.7039L68.1931 70.3053L68.1761 70.3039H68.1589V70.7039ZM70.0632 72.5437H70.4632V72.5437L70.0632 72.5437ZM68.1589 74.3601V74.7601H68.1761L68.1931 74.7586L68.1589 74.3601ZM46.8337 74.3601V73.9601H46.811L46.7884 73.9627L46.8337 74.3601ZM44.7937 73.5222L44.4688 73.7557L44.4733 73.7617L44.7937 73.5222ZM44.7937 71.5652L45.1141 71.8047L45.1185 71.7987L44.7937 71.5652ZM70.281 61.9011L70.681 61.9012V61.9011H70.281ZM46.8337 63.7175L46.8337 64.1175H46.8337V63.7175ZM44.7126 61.9011H44.3126L44.3126 61.9012L44.7126 61.9011ZM46.8337 60.0818V59.6818H46.8337L46.8337 60.0818ZM57.4646 48.3894L57.4646 47.9894H57.4646V48.3894ZM59.5857 50.2078H59.9857V50.2076L59.5857 50.2078ZM57.4646 52.0251V52.4251H57.4646L57.4646 52.0251ZM46.8337 52.0251L46.8337 52.4251H46.8337V52.0251ZM44.7126 50.2078L44.3126 50.2076V50.2078H44.7126ZM46.8337 48.3894V47.9894H46.8337L46.8337 48.3894ZM46.8337 70.7039V71.1039H68.1589V70.7039V70.3039H46.8337V70.7039ZM68.1589 70.7039L68.1247 71.1024C69.0477 71.1816 69.6632 71.8385 69.6632 72.5437L70.0632 72.5437L70.4632 72.5437C70.4632 71.3393 69.4407 70.4124 68.1931 70.3053L68.1589 70.7039ZM70.0632 72.5437H69.6632C69.6632 73.2206 69.0508 73.8821 68.1247 73.9616L68.1589 74.3601L68.1931 74.7586C69.4376 74.6518 70.4632 73.7252 70.4632 72.5437H70.0632ZM68.1589 74.3601V73.9601H46.8337V74.3601V74.7601H68.1589V74.3601ZM46.8337 74.3601L46.7884 73.9627C46.1074 74.0404 45.4603 73.7458 45.1141 73.2827L44.7937 73.5222L44.4733 73.7617C44.9975 74.4629 45.9283 74.866 46.8791 74.7575L46.8337 74.3601ZM44.7937 73.5222L45.1185 73.2888C44.7815 72.8199 44.787 72.2422 45.1141 71.8047L44.7937 71.5652L44.4733 71.3257C43.9299 72.0526 43.9354 73.0135 44.4689 73.7557L44.7937 73.5222ZM44.7937 71.5652L45.1185 71.7987C45.4597 71.324 46.1029 71.0428 46.7996 71.1024L46.8337 70.7039L46.8678 70.3053C45.9329 70.2254 44.998 70.5957 44.4689 71.3317L44.7937 71.5652ZM68.1589 60.0818V60.4818C69.1674 60.4818 69.881 61.176 69.881 61.9011H70.281H70.681C70.681 60.6234 69.4897 59.6818 68.1589 59.6818V60.0818ZM70.281 61.9011L69.881 61.901C69.8808 62.6254 69.1681 63.3175 68.1589 63.3175V63.7175V64.1175C69.4887 64.1175 70.6807 63.1794 70.681 61.9012L70.281 61.9011ZM68.1589 63.7175V63.3175H46.8337V63.7175V64.1175H68.1589V63.7175ZM46.8337 63.7175L46.8338 63.3175C45.8226 63.3173 45.1128 62.6257 45.1126 61.901L44.7126 61.9011L44.3126 61.9012C44.3129 63.1788 45.5009 64.1173 46.8337 64.1175L46.8337 63.7175ZM44.7126 61.9011H45.1126C45.1126 61.1757 45.8233 60.482 46.8338 60.4818L46.8337 60.0818L46.8337 59.6818C45.4999 59.682 44.3126 60.624 44.3126 61.9011H44.7126ZM46.8337 60.0818V60.4818H68.1589V60.0818V59.6818H46.8337V60.0818ZM57.4646 48.3894L57.4646 48.7894C58.4727 48.7894 59.1855 49.4829 59.1857 50.2079L59.5857 50.2078L59.9857 50.2076C59.9853 48.9303 58.7952 47.9895 57.4646 47.9894L57.4646 48.3894ZM59.5857 50.2078H59.1857C59.1857 50.9326 58.4734 51.6251 57.4646 51.6251L57.4646 52.0251L57.4646 52.4251C58.7949 52.4251 59.9857 51.4857 59.9857 50.2078H59.5857ZM57.4646 52.0251V51.6251H46.8337V52.0251V52.4251H57.4646V52.0251ZM46.8337 52.0251L46.8338 51.6251C45.8226 51.625 45.1126 50.9328 45.1126 50.2078H44.7126H44.3126C44.3126 51.4854 45.5004 52.425 46.8337 52.4251L46.8337 52.0251ZM44.7126 50.2078L45.1126 50.2079C45.1129 49.4826 45.8233 48.7895 46.8338 48.7894L46.8337 48.3894L46.8337 47.9894C45.5002 47.9896 44.313 48.9307 44.3126 50.2076L44.7126 50.2078ZM46.8337 48.3894V48.7894H57.4646V48.3894V47.9894H46.8337V48.3894Z" fill="url(#paint3_linear_14477_30)" mask="url(#path-4-inside-1_14477_30)"/>
</g>
<defs>
<filter id="filter0_f_14477_30" x="0" y="0" width="85.8845" height="91.9814" filterUnits="userSpaceOnUse" color-interpolation-filters="sRGB">
<feFlood flood-opacity="0" result="BackgroundImageFix"/>
<feBlend mode="normal" in="SourceGraphic" in2="BackgroundImageFix" result="shape"/>
<feGaussianBlur stdDeviation="13.5" result="effect1_foregroundBlur_14477_30"/>
</filter>
<clipPath id="bgblur_0_14477_30_clip_path" transform="translate(-8.01636 -5.85498)"><path d="M68.8962 30.355C73.2028 30.355 76.6194 31.6886 78.9548 34.2231C81.2846 36.7516 82.4763 40.4084 82.4763 44.938V75.0581C82.4763 79.6588 81.2853 83.3244 78.9539 85.8433C76.6169 88.368 73.1996 89.6704 68.8962 89.6704H46.0994C41.8609 89.6704 38.4444 88.3674 36.0916 85.8452C33.7432 83.3279 32.5164 79.6625 32.5164 75.0581V44.938L32.531 44.0981C32.6746 39.952 33.8907 36.5902 36.0906 34.2212C38.4419 31.6892 41.8577 30.355 46.0994 30.355H68.8962Z"/>
</clipPath><filter id="filter2_d_14477_30" x="29.4673" y="33.3894" width="55.8137" height="55.9856" filterUnits="userSpaceOnUse" color-interpolation-filters="sRGB">
<feFlood flood-opacity="0" result="BackgroundImageFix"/>
<feColorMatrix in="SourceAlpha" type="matrix" values="0 0 0 0 0 0 0 0 0 0 0 0 0 0 0 0 0 0 127 0" result="hardAlpha"/>
<feOffset dx="5" dy="5"/>
<feGaussianBlur stdDeviation="5"/>
<feColorMatrix type="matrix" values="0 0 0 0 0.0269223 0 0 0 0 0.47692 0 0 0 0 0.560641 0 0 0 0.5 0"/>
<feBlend mode="normal" in2="BackgroundImageFix" result="effect1_dropShadow_14477_30"/>
<feBlend mode="normal" in="SourceGraphic" in2="effect1_dropShadow_14477_30" result="shape"/>
</filter>
<clipPath id="bgblur_1_14477_30_clip_path" transform="translate(-29.4673 -33.3894)"><path d="M46.8337 70.7039H68.1589C69.2442 70.797 70.0632 71.5889 70.0632 72.5437C70.0632 73.4729 69.2442 74.267 68.1589 74.3601H46.8337C46.0178 74.4532 45.2289 74.1043 44.7937 73.5222C44.3585 72.9167 44.3585 72.1474 44.7937 71.5652C45.2289 70.9599 46.0179 70.6341 46.8337 70.7039ZM68.1589 60.0818C69.3285 60.0818 70.281 60.8997 70.281 61.9011C70.2808 62.9024 69.3284 63.7175 68.1589 63.7175H46.8337C45.6617 63.7173 44.7128 62.9022 44.7126 61.9011C44.7126 60.8998 45.6616 60.082 46.8337 60.0818H68.1589ZM57.4646 48.3894C58.634 48.3894 59.5854 49.2066 59.5857 50.2078C59.5857 51.2091 58.6342 52.0251 57.4646 52.0251H46.8337C45.6615 52.025 44.7126 51.2091 44.7126 50.2078C44.7129 49.2067 45.6617 48.3895 46.8337 48.3894H57.4646Z"/>
</clipPath><linearGradient id="paint0_linear_14477_30" x1="37.1785" y1="18.9625" x2="59.179" y2="126.05" gradientUnits="userSpaceOnUse">
<stop stop-color="#00D7FF"/>
<stop offset="1" stop-color="#063D56"/>
</linearGradient>
<linearGradient id="paint1_linear_14477_30" x1="40.81" y1="37.6488" x2="124.526" y2="105.467" gradientUnits="userSpaceOnUse">
<stop stop-color="white" stop-opacity="0.25"/>
<stop offset="1" stop-color="white" stop-opacity="0"/>
</linearGradient>
<linearGradient id="paint2_linear_14477_30" x1="68.4509" y1="53.0819" x2="39.6964" y2="54.0132" gradientUnits="userSpaceOnUse">
<stop stop-color="white"/>
<stop offset="1" stop-color="white" stop-opacity="0.2"/>
</linearGradient>
<linearGradient id="paint3_linear_14477_30" x1="48.5764" y1="51.4168" x2="65.1754" y2="71.839" gradientUnits="userSpaceOnUse">
<stop stop-color="white" stop-opacity="0.25"/>
<stop offset="1" stop-color="white" stop-opacity="0"/>
</linearGradient>
</defs>
</svg>
